<?xml version="1.0" encoding="UTF-8" standalone="no"?>
<!-- Created with Inkscape (http://www.inkscape.org/) -->

<svg
   width="130mm"
   height="130mm"
   version="1.1"
   viewBox="0 0 130 130"
   xml:space="preserve"
   id="svg1"
   sodipodi:docname="Pfeil-Runter-Fett.svg"
   inkscape:version="1.4.2 (f4327f4, 2025-05-13)"
   xmlns:inkscape="http://www.inkscape.org/namespaces/inkscape"
   xmlns:sodipodi="http://sodipodi.sourceforge.net/DTD/sodipodi-0.dtd"
   xmlns="http://www.w3.org/2000/svg"
   xmlns:svg="http://www.w3.org/2000/svg"><defs
     id="defs1"><filter
       inkscape:collect="always"
       style="color-interpolation-filters:sRGB"
       id="filter16"
       x="-0.20944593"
       y="-0.20944593"
       width="1.4188919"
       height="1.4188919"><feGaussianBlur
         inkscape:collect="always"
         stdDeviation="11.344988"
         id="feGaussianBlur16" /></filter></defs><sodipodi:namedview
     id="namedview1"
     pagecolor="#ffffff"
     bordercolor="#000000"
     borderopacity="0.25"
     inkscape:showpageshadow="2"
     inkscape:pageopacity="0.0"
     inkscape:pagecheckerboard="0"
     inkscape:deskcolor="#d1d1d1"
     inkscape:document-units="mm"
     showgrid="false"
     inkscape:zoom="1.2812848"
     inkscape:cx="123.31372"
     inkscape:cy="258.72467"
     inkscape:window-width="1920"
     inkscape:window-height="1111"
     inkscape:window-x="-9"
     inkscape:window-y="-9"
     inkscape:window-maximized="1"
     inkscape:current-layer="svg1" /><g
     transform="matrix(0,0.80882826,-0.80882826,0,185.47982,-32.69606)"
     id="g1"><path
       d="M 120.78459,120.91796 70.871537,93.007777 V 204.90422 l 7.33162,-4.09305 c 42.977383,-23.99299 92.499603,-51.75638 92.499603,-51.85724 -9e-4,-0.0693 -22.46303,-12.68538 -49.91484,-28.03624 z"
       id="path1"
       style="stroke-width:0.900502" /></g><rect
     style="fill:#000000;stroke-width:0.264583;filter:url(#filter16);opacity:0;fill-opacity:0"
     id="rect1"
     width="130"
     height="130"
     x="-3.3306691e-15"
     y="1.5543122e-15" /><path
     style="fill:none;stroke-width:0.780467"
     d="M 0,245.84697 V 0.39023329 H 245.45674 490.91348 V 245.84697 491.30371 H 245.45674 0 Z"
     id="path2"
     transform="scale(0.26458333)" /><path
     style="fill:none;stroke-width:0.780467"
     d="M 0,245.84697 V 0.39023329 H 245.45674 490.91348 V 245.84697 491.30371 H 245.45674 0 Z"
     id="path3"
     transform="scale(0.26458333)" /><path
     style="fill:none;stroke-width:0.780467"
     d="M 0,245.84697 V 0.39023329 H 245.45674 490.91348 V 245.84697 491.30371 H 245.45674 0 Z"
     id="path4"
     transform="scale(0.26458333)" /><path
     style="fill:none;stroke-width:0.780467"
     d="M 0,245.84697 V 0.39023329 H 245.45674 490.91348 V 245.84697 491.30371 H 245.45674 0 Z"
     id="path5"
     transform="scale(0.26458333)" /><path
     style="fill:none;stroke-width:0.780467"
     d="M 0,245.84697 V 0.39023329 H 245.45674 490.91348 V 245.84697 491.30371 H 245.45674 0 Z"
     id="path6"
     transform="scale(0.26458333)" /><path
     style="fill:none;stroke-width:0.780467"
     d="M 0,245.84697 V 0.39023329 H 245.45674 490.91348 V 245.84697 491.30371 H 245.45674 0 Z"
     id="path7"
     transform="scale(0.26458333)" /><path
     style="fill:none;stroke-width:0.780467"
     d="M 0,245.84697 V 0.39023329 H 245.45674 490.91348 V 245.84697 491.30371 H 245.45674 0 Z"
     id="path8"
     transform="scale(0.26458333)" /><path
     style="fill:none;stroke-width:0.780467;opacity:0"
     d="M 0,245.84697 V 0.39023329 H 245.45674 490.91348 V 245.84697 491.30371 H 245.45674 0 Z"
     id="path9"
     transform="scale(0.26458333)" /><path
     style="opacity:0;fill:none;stroke-width:0.780467"
     d="M 0,245.84697 V 0.39023329 H 245.45674 490.91348 V 245.84697 491.30371 H 245.45674 0 Z"
     id="path10"
     transform="scale(0.26458333)" /><path
     style="opacity:0;fill:none;stroke-width:0.780467"
     d="M 0,245.84697 V 0.39023329 H 245.45674 490.91348 V 245.84697 491.30371 H 245.45674 0 Z"
     id="path11"
     transform="scale(0.26458333)" /><path
     style="opacity:0;fill:none;stroke-width:0.780467"
     d="M 0,245.84697 V 0.39023329 H 245.45674 490.91348 V 245.84697 491.30371 H 245.45674 0 Z"
     id="path12"
     transform="scale(0.26458333)" /><path
     style="opacity:0;fill:#ffffff;stroke-width:0.780467"
     d="M 0,245.84697 V 0.39023329 H 245.45674 490.91348 V 245.84697 491.30371 H 245.45674 0 Z"
     id="path13"
     transform="scale(0.26458333)" /><path
     style="opacity:0;fill:#ffffff;stroke-width:0.780467"
     d="M 0,245.84697 V 0.39023329 H 245.45674 490.91348 V 245.84697 491.30371 H 245.45674 0 Z"
     id="path14"
     transform="scale(0.26458333)" /><path
     style="opacity:0;fill:#ffffff;stroke-width:0.780467"
     d="M 0,245.84697 V 0.39023329 H 245.45674 490.91348 V 245.84697 491.30371 H 245.45674 0 Z"
     id="path15"
     transform="scale(0.26458333)" /><path
     style="opacity:0;fill:#ffffff;stroke-width:0.780467"
     d="M 0,245.84697 V 0.39023329 H 245.45674 490.91348 V 245.84697 491.30371 H 245.45674 0 Z"
     id="path16"
     transform="scale(0.26458333)" /><rect
     style="opacity:0;fill:#000000;fill-opacity:0;stroke-width:0.264583"
     id="rect16"
     width="129.68103"
     height="129.26804"
     x="0"
     y="-0.41299689" /><rect
     style="opacity:0;fill:#000000;fill-opacity:0;stroke-width:0.264583"
     id="rect17"
     width="130.50702"
     height="130.09402"
     x="-0.41299689"
     y="0" /></svg>
