<?xml version="1.0" encoding="UTF-8"?>
<!-- Created with Inkscape (http://www.inkscape.org/) -->
<svg width="130mm" height="130mm" version="1.1" viewBox="0 0 130 130" xml:space="preserve" xmlns="http://www.w3.org/2000/svg"><defs><filter id="filter16" x="-.20945" y="-.20945" width="1.4189" height="1.4189" color-interpolation-filters="sRGB"><feGaussianBlur stdDeviation="11.344988"/></filter></defs><g transform="matrix(0 .80476 -.80476 0 184.87 -32.205)"><path d="m120.79 117.82 55.428-30.994v124.26l-8.1417-4.5453c-47.726-26.644-102.72-57.475-102.72-57.587 1e-3 -0.077 24.945-14.087 55.43-31.134z"/></g><rect x="-3.3307e-15" y="1.5543e-15" width="130" height="130" filter="url(#filter16)" opacity="0" stroke-width=".26458"/><g fill="none" stroke-width=".78047"><path transform="scale(.26458)" d="m0 245.85v-245.46h490.91v490.91h-490.91z"/><path transform="scale(.26458)" d="m0 245.85v-245.46h490.91v490.91h-490.91z"/><path transform="scale(.26458)" d="m0 245.85v-245.46h490.91v490.91h-490.91z"/><path transform="scale(.26458)" d="m0 245.85v-245.46h490.91v490.91h-490.91z"/><path transform="scale(.26458)" d="m0 245.85v-245.46h490.91v490.91h-490.91z"/><path transform="scale(.26458)" d="m0 245.85v-245.46h490.91v490.91h-490.91z"/><path transform="scale(.26458)" d="m0 245.85v-245.46h490.91v490.91h-490.91z"/></g><g stroke-width=".78047"><path transform="scale(.26458)" d="m0 245.85v-245.46h490.91v490.91h-490.91z" opacity="0"/><path transform="scale(.26458)" d="m0 245.85v-245.46h490.91v490.91h-490.91z" opacity="0"/><path transform="scale(.26458)" d="m0 245.85v-245.46h490.91v490.91h-490.91z" opacity="0"/><path transform="scale(.26458)" d="m0 245.85v-245.46h490.91v490.91h-490.91z" opacity="0"/><path transform="scale(.26458)" d="m0 245.85v-245.46h490.91v490.91h-490.91z" opacity="0"/><path transform="scale(.26458)" d="m0 245.85v-245.46h490.91v490.91h-490.91z" opacity="0"/><path transform="scale(.26458)" d="m0 245.85v-245.46h490.91v490.91h-490.91z" opacity="0"/><path transform="scale(.26458)" d="m0 245.85v-245.46h490.91v490.91h-490.91z" opacity="0"/></g></svg>
