<?xml version="1.0" encoding="UTF-8"?>
<!-- Created with Inkscape (http://www.inkscape.org/) -->
<svg width="130mm" height="130mm" version="1.1" viewBox="0 0 130 130" xml:space="preserve" xmlns="http://www.w3.org/2000/svg"><defs><filter id="filter16" x="-.20945" y="-.20945" width="1.4189" height="1.4189" color-interpolation-filters="sRGB"><feGaussianBlur stdDeviation="11.344988"/></filter></defs><g transform="matrix(.80883 0 0 -.80883 -32.7 185.48)"><path d="m120.79 120.92 49.913-27.91v111.9l-7.3316-4.093c-42.977-23.993-92.5-51.756-92.5-51.857 9.01e-4 -0.0693 22.463-12.685 49.915-28.036z" stroke-width=".9005"/></g><rect x="-3.3307e-15" y="1.5543e-15" width="130" height="130" filter="url(#filter16)" opacity="0" stroke-width=".26458"/><g fill="none" stroke-width=".78047"><path transform="scale(.26458)" d="m0 245.85v-245.46h490.91v490.91h-490.91z"/><path transform="scale(.26458)" d="m0 245.85v-245.46h490.91v490.91h-490.91z"/><path transform="scale(.26458)" d="m0 245.85v-245.46h490.91v490.91h-490.91z"/><path transform="scale(.26458)" d="m0 245.85v-245.46h490.91v490.91h-490.91z"/><path transform="scale(.26458)" d="m0 245.85v-245.46h490.91v490.91h-490.91z"/><path transform="scale(.26458)" d="m0 245.85v-245.46h490.91v490.91h-490.91z"/><path transform="scale(.26458)" d="m0 245.85v-245.46h490.91v490.91h-490.91z"/></g><g stroke-width=".78047"><path transform="scale(.26458)" d="m0 245.85v-245.46h490.91v490.91h-490.91z" opacity="0"/><path transform="scale(.26458)" d="m0 245.85v-245.46h490.91v490.91h-490.91z" opacity="0"/><path transform="scale(.26458)" d="m0 245.85v-245.46h490.91v490.91h-490.91z" opacity="0"/><path transform="scale(.26458)" d="m0 245.85v-245.46h490.91v490.91h-490.91z" opacity="0"/><path transform="scale(.26458)" d="m0 245.85v-245.46h490.91v490.91h-490.91z" opacity="0"/><path transform="scale(.26458)" d="m0 245.85v-245.46h490.91v490.91h-490.91z" opacity="0"/><path transform="scale(.26458)" d="m0 245.85v-245.46h490.91v490.91h-490.91z" opacity="0"/><path transform="scale(.26458)" d="m0 245.85v-245.46h490.91v490.91h-490.91z" opacity="0"/></g><rect y="-.413" width="129.68" height="129.27" opacity="0" stroke-width=".26458"/><rect x="-.413" width="130.51" height="130.09" opacity="0" stroke-width=".26458"/></svg>
