<?xml version="1.0" encoding="UTF-8"?>
<!-- Created with Inkscape (http://www.inkscape.org/) -->
<svg width="210mm" height="297mm" version="1.1" viewBox="0 0 210 297" xml:space="preserve" xmlns="http://www.w3.org/2000/svg"><path d="m65.491 93.485c-2.4668-0.64623-4.2091-1.5994-5.9173-3.2372l-1.3571-1.3012 10.134-10.144v-4.7531l-11.861 11.852-0.39691-1.3366c-0.68616-2.3105-0.77806-4.0174-0.3314-6.1546 1.164-5.5694 5.0535-9.3946 10.679-10.503 2.0021-0.39444 2.3464-0.39456 4.3411-2e-3 2.7427 0.54034 5.0652 1.6801 6.8632 3.3682l1.409 1.3228-10.174 10.184v2.3126c0 1.2719 0.11042 2.3126 0.24538 2.3126s0.4717-0.26789 0.74832-0.59531c0.27662-0.32743 2.8394-2.9102 5.695-5.7394l5.192-5.1441 0.30083 0.77844c1.6208 4.1939 0.27175 9.8974-3.1456 13.299-1.8408 1.8324-3.5872 2.8035-6.2804 3.4924-2.5102 0.64201-3.6555 0.6397-6.1447-0.0124zm27.995-1.9778v-1.9844l2.5136 0.0924-1.1245 0.10128c-1.0394 0.0936-1.1245 0.15898-1.1245 0.86384 0 0.68635 0.0992 0.77294 0.99219 0.86635l0.99218 0.10379-0.99218 0.0445c-0.91188 0.0409-0.99219 0.10756-0.99219 0.82373 0 0.73934 0.0644 0.78433 1.2568 0.87835l1.2568 0.0991-2.7781 0.0954zm4.4979 0c0-1.1465 0.11171-1.9844 0.26458-1.9844 0.15099 0 0.26459 0.78868 0.26459 1.8369v1.8369l1.1245 0.10127c1.0751 0.0968 1.0634 0.10332-0.26459 0.14751l-1.3891 0.0462zm4.4979 0v-1.9844l2.5136 0.0924-1.1245 0.10128c-1.0394 0.0936-1.1245 0.15898-1.1245 0.86384 0 0.68635 0.0992 0.77294 0.99218 0.86635l0.99219 0.10379-0.99219 0.0445c-0.91165 0.0409-0.99218 0.10767-0.99218 0.82301 0 0.72365 0.0793 0.78568 1.1245 0.87982l1.1245 0.10128-2.5136 0.0924zm4.4979 0c0-1.1465 0.11171-1.9844 0.26458-1.9844 0.14552 0 0.26459 0.41672 0.26459 0.92604s0.0843 0.92604 0.18728 0.92604c0.103 0 0.6581-0.44648 1.2336-0.99219 1.0382-0.98457 1.0418-0.98565 0.46185-0.14029-0.32142 0.46854-0.70871 0.92872-0.86065 1.0226-0.16219 0.10024 0.13814 0.59509 0.72748 1.1986 0.55204 0.56534 0.86556 1.0279 0.69671 1.0279s-0.63949-0.41671-1.0459-0.92603c-0.9497-1.1902-1.4003-1.1902-1.4003-1e-5 0 0.50933-0.11907 0.92604-0.26459 0.92604-0.15287 0-0.26458-0.83784-0.26458-1.9844zm6.0854 0.14906v-1.8353l-0.8599-0.10672c-0.47294-0.0587 0.0331-0.10671 1.1245-0.10671 1.0914 0 1.5974 0.048 1.1245 0.10671l-0.8599 0.10672v1.8353c0 1.0472-0.11362 1.8353-0.26458 1.8353s-0.26458-0.78816-0.26458-1.8353zm4.0111-0.0829-0.0423-2.0505h0.9044c0.49742 0 1.0927 0.0723 1.3229 0.16059 0.53764 0.20632 0.54814 1.5191 0.0157 1.961-0.36009 0.29885-0.35784 0.40298 0.0211 0.98139 0.23318 0.35589 0.35865 0.7124 0.2788 0.79224-0.0798 0.0798-0.35725-0.22738-0.61645-0.68274-0.66047-1.1603-1.5895-1.1449-1.7351 0.0286-0.0587 0.47295-0.12577-0.0628-0.14906-1.1906zm2.0214-0.25136c0.77856-0.77856 0.2074-1.5346-1.1594-1.5346-0.55483 0-0.63982 0.123-0.63982 0.92604 0 0.83785 0.0706 0.92604 0.74083 0.92604 0.40746 0 0.88371-0.14287 1.0583-0.3175zm2.872 1.6857c-0.60436-0.66781-0.57697-2.4833 0.046-3.047 0.65389-0.59177 2.2288-0.56575 2.7824 0.046 0.60436 0.6678 0.57696 2.4833-0.046 3.047-0.6539 0.59177-2.2288 0.56575-2.7824-0.046zm2.5178-0.21861c0.59802-0.5412 0.63688-2.0171 0.0681-2.5859-0.98535-0.98535-2.7592-0.17657-2.7592 1.258 0 1.5368 1.5922 2.3224 2.6911 1.3279zm-31.002-12.032v-4.2673l2.1282 0.1232c2.7576 0.15963 3.5257 0.66369 3.6398 2.3886 0.0724 1.0942-3e-3 1.2678-0.85479 1.97l-0.9342 0.77005 0.61385 0.91379c1.6327 2.4306 1.6053 2.3692 1.06 2.3667-0.31169-1e-3 -0.86965-0.58622-1.5148-1.5875-0.99308-1.5414-1.0534-1.5852-2.1828-1.5852h-1.1615v1.5875c0 1.2347-0.0882 1.5875-0.39687 1.5875-0.33637 0-0.39688-0.65054-0.39688-4.2673zm4.488-0.35391c0.7663-0.69349 0.69436-1.8328-0.15806-2.5033-0.50853-0.4-1.0812-0.54837-2.1167-0.54837h-1.4195v3.7678l1.5776-0.11411c1.0351-0.0749 1.763-0.28187 2.1167-0.60198zm4.8385 4.3484c-0.32742-0.13161-0.59531-0.43445-0.59531-0.67299 0-0.30947 0.13264-0.37897 0.46302-0.24262 2.6925 1.1112 5.0299 0.13713 4.0526-1.6889-0.15406-0.28787-0.96521-0.77888-1.8026-1.0911-1.8942-0.70635-2.7131-1.4427-2.7131-2.4397 0-1.2388 1.042-2.0585 2.6166-2.0585 1.5591 0 2.7665 0.40049 2.5974 0.86153-0.0664 0.181-0.28443 0.27917-0.48452 0.21815-0.77818-0.23731-2.3837-0.33438-2.9946-0.18106-0.75127 0.18856-1.0826 0.9884-0.70318 1.6974 0.14698 0.27463 0.99708 0.76545 1.8891 1.0907 2.0812 0.75886 2.6355 1.3149 2.6355 2.6441 0 1.4846-0.89281 2.1415-2.88 2.1191-0.81712-9e-3 -1.7536-0.12445-2.081-0.25606zm8.1359-3.9605c0-3.5866 0.0606-4.2333 0.39688-4.2333 0.31498 0 0.39687 0.38218 0.39687 1.8521 0 1.7779 0.0254 1.8521 0.63421 1.8521 0.45244 0 1.1048-0.53081 2.2762-1.8521 0.99356-1.1207 1.8496-1.8521 2.1677-1.8521 0.41428 0 0.15615 0.41291-1.2179 1.9481-0.95896 1.0715-1.7436 2.0428-1.7436 2.1584s0.84309 1.144 1.8735 2.2852c1.6194 1.7935 1.7899 2.0725 1.2568 2.0571-0.42496-0.0123-1.151-0.62938-2.3346-1.9844-1.1859-1.3576-1.9028-1.9666-2.3151-1.9666-0.56686 0-0.59725 0.10098-0.59725 1.9844 0 1.5875-0.0794 1.9844-0.39687 1.9844-0.33625 0-0.39688-0.64676-0.39688-4.2333z"/></svg>
